<svg width="24" height="24" viewBox="0 0 24 24" fill="none" xmlns="http://www.w3.org/2000/svg">
<circle cx="12" cy="12" r="12" fill="#8DC540"/>
<path d="M4.375 20.0209C4.375 20.2709 4.54163 20.4375 4.79158 20.4375C5.04153 20.4375 5.20817 20.2709 5.20817 20.0209C5.20817 16.271 8.24981 13.2293 11.9998 13.2293C15.7497 13.2293 18.7916 16.271 18.7916 20.0209C18.7916 20.2709 18.9582 20.4375 19.2082 20.4375C19.4581 20.4375 19.6247 20.2709 19.6247 20.0209C19.6247 16.5625 17.2914 13.6459 14.1665 12.6874C15.7497 11.8958 16.8333 10.2701 16.8333 8.3958C16.8333 5.7292 14.6666 3.5625 11.9998 3.5625C9.33292 3.5625 7.16669 5.7292 7.16669 8.3958C7.16669 10.2708 8.25004 11.8958 9.83329 12.6874C6.66679 13.6041 4.375 16.5207 4.375 20.0209ZM8.00009 8.35332C8.00009 6.14508 9.79175 4.35319 12 4.35319C14.2082 4.35319 16.0001 6.14602 16.0001 8.35332C16.0001 10.5606 14.2087 12.3542 12 12.3542C9.79128 12.3542 8.00009 10.5625 8.00009 8.35332Z" fill="white"/>
</svg>
