<svg width="32" height="31" viewBox="0 0 32 31" fill="none" xmlns="http://www.w3.org/2000/svg">
<path d="M5.237 0.00880855H1.05058C0.21329 0.137624 0.00396926 0.867564 0.00396955 1.21643C-0.060437 2.18253 0.674872 2.58507 1.05058 2.66558H4.35141L9.26242 18.9282L11.5972 17.8011L8.45733 7.17404H28.5844L26.8132 16.1105L11.6777 17.9621L9.26242 19.0893C8.05479 20.6994 8.69886 22.3096 8.69886 22.4706C9.27852 24.0808 11.2483 24.3223 12.1607 24.2418C14.6082 23.8553 23.1635 23.4904 27.1352 23.3562C28.4878 23.3562 28.7722 22.6585 28.7454 22.3096C28.7454 21.4723 27.8867 21.263 27.4573 21.263L11.5166 22.0681C10.2929 22.0681 10.5237 21.1556 10.7921 20.6994L27.8598 18.6867C28.9547 18.5579 29.1748 17.828 29.148 17.4791L31.4022 6.12743C31.4666 4.77489 30.4629 4.49043 29.953 4.51727H7.65225L6.68615 1.21643C6.42853 0.12152 5.61271 -0.0448636 5.237 0.00880855Z" fill="white"/>
<circle cx="10.6309" cy="27.8647" r="2.65677" fill="white"/>
<circle cx="25.4444" cy="27.8647" r="2.65677" fill="white"/>
<rect x="14.8979" y="6.85199" width="1.28813" height="11.2712" fill="white"/>
<rect x="21.6606" y="6.85199" width="1.28813" height="11.2712" fill="white"/>
<rect x="9.58447" y="11.3605" width="18.6779" height="1.28813" fill="white"/>
<path d="M11.6777 18.0426L11.3556 16.996L8.85986 17.5596L9.2624 19.0892L11.6777 18.0426Z" fill="white"/>
</svg>
