<svg width="41" height="41" viewBox="0 0 41 41" fill="none" xmlns="http://www.w3.org/2000/svg">
<circle cx="20.5" cy="20.5" r="19.5" fill="url(#paint0_linear_1_988)" stroke="white" stroke-width="2"/>
<path d="M11.8844 10.0065H8.77924C8.1582 10.1021 8.00294 10.6435 8.00294 10.9023C7.95517 11.6188 8.50057 11.9174 8.77924 11.9771H11.2276L14.8702 24.0396L16.602 23.2036L14.2731 15.3212H29.2019L27.8881 21.9496L16.6617 23.323L14.8702 24.1591C13.9745 25.3534 14.4522 26.5477 14.4522 26.6671C14.8821 27.8614 16.3432 28.0406 17.02 27.9808C18.8353 27.6942 25.1811 27.4235 28.127 27.324C29.1302 27.324 29.3412 26.8064 29.3213 26.5477C29.3213 25.9266 28.6844 25.7714 28.3659 25.7714L16.5422 26.3685C15.6346 26.3685 15.8057 25.6918 16.0048 25.3534L28.6644 23.8605C29.4766 23.7649 29.6398 23.2235 29.6199 22.9648L31.2919 14.5449C31.3397 13.5417 30.5952 13.3307 30.217 13.3506H13.6759L12.9593 10.9023C12.7682 10.0901 12.1631 9.96672 11.8844 10.0065Z" fill="white"/>
<circle cx="15.8854" cy="30.6679" r="1.97061" fill="white"/>
<circle cx="26.8729" cy="30.6679" r="1.97061" fill="white"/>
<rect x="19.0503" y="15.0825" width="0.955445" height="8.36015" fill="white"/>
<rect x="24.0664" y="15.0825" width="0.955445" height="8.36015" fill="white"/>
<rect x="15.1091" y="18.4263" width="13.854" height="0.955445" fill="white"/>
<path d="M16.6617 23.3827L16.4228 22.6064L14.5717 23.0245L14.8702 24.159L16.6617 23.3827Z" fill="white"/>
<defs>
<linearGradient id="paint0_linear_1_988" x1="13" y1="28" x2="41" y2="10" gradientUnits="userSpaceOnUse">
<stop stop-color="#F54343"/>
<stop offset="1" stop-color="#FF881A"/>
</linearGradient>
</defs>
</svg>
