<svg width="31" height="31" viewBox="0 0 31 31" fill="none" xmlns="http://www.w3.org/2000/svg">
<circle cx="15.5" cy="15.5" r="15.5" fill="url(#paint0_linear_176_407)"/>
<path d="M9.627 9.00422H7.61911C7.21753 9.06601 7.11714 9.4161 7.11714 9.58342C7.08625 10.0468 7.43892 10.2398 7.61911 10.2785H9.20225L11.5577 18.0783L12.6774 17.5377L11.1715 12.4408H20.8248L19.9753 16.7269L12.7161 17.615L11.5577 18.1556C10.9785 18.9278 11.2874 19.7001 11.2874 19.7773C11.5654 20.5496 12.5101 20.6654 12.9477 20.6268C14.1216 20.4415 18.2249 20.2664 20.1298 20.2021C20.7785 20.2021 20.9149 19.8674 20.9021 19.7001C20.9021 19.2985 20.4902 19.1981 20.2843 19.1981L12.6388 19.5842C12.0519 19.5842 12.1626 19.1466 12.2913 18.9278L20.4773 17.9625C21.0025 17.9007 21.108 17.5506 21.0951 17.3833L22.1763 11.9388C22.2072 11.2901 21.7258 11.1537 21.4813 11.1666H10.7854L10.322 9.58342C10.1985 9.05828 9.80719 8.97848 9.627 9.00422Z" fill="white"/>
<circle cx="12.2147" cy="22.3644" r="1.27424" fill="white"/>
<circle cx="19.3192" cy="22.3644" r="1.27424" fill="white"/>
<rect x="14.2607" y="12.2863" width="0.617812" height="5.40585" fill="white"/>
<rect x="17.5039" y="12.2863" width="0.617812" height="5.40585" fill="white"/>
<rect x="11.7129" y="14.4487" width="8.95827" height="0.617812" fill="white"/>
<path d="M12.7157 17.6536L12.5613 17.1516L11.3643 17.4219L11.5573 18.1556L12.7157 17.6536Z" fill="white"/>
<defs>
<linearGradient id="paint0_linear_176_407" x1="9.82927" y1="21.1707" x2="31" y2="7.56098" gradientUnits="userSpaceOnUse">
<stop stop-color="#F54343"/>
<stop offset="1" stop-color="#FF881A"/>
</linearGradient>
</defs>
</svg>
