<svg width="41" height="41" viewBox="0 0 41 41" fill="none" xmlns="http://www.w3.org/2000/svg">
<circle cx="20.5" cy="20.5" r="19.5" stroke="white" stroke-width="2"/>
<path d="M15.1946 14.0015H15.2155L15.2363 14.0006C15.6323 13.9841 16.5104 14.2043 16.7729 15.2625C16.8454 15.6244 16.9603 16.1725 17.0752 16.6701C17.1336 16.9229 17.1937 17.1703 17.2496 17.3766C17.2953 17.5454 17.3643 17.79 17.451 17.9634C17.4857 18.0328 17.5972 18.2977 17.5552 18.6403C17.5181 18.9423 17.3451 19.453 16.5587 20.0344L15.8078 20.5896L16.3105 21.3768C16.6653 21.9324 17.292 22.7926 18.0491 23.6183C18.7901 24.4266 19.7367 25.2917 20.7389 25.7512L21.3712 26.0411L21.8629 25.5492L22.6293 24.7825C22.7041 24.7076 22.8928 24.5651 23.1278 24.4833C23.3475 24.4069 23.5497 24.401 23.7422 24.4835C24.8193 24.9453 26.1283 25.1765 26.6592 25.239L26.7174 25.2459H26.7761C26.9284 25.2459 27.2279 25.3105 27.4805 25.5227C27.6957 25.7035 27.9578 26.0578 27.9895 26.8031C27.9754 27.2204 27.959 27.8394 27.954 28.3875C27.9515 28.6685 27.9519 28.9394 27.9578 29.1579C27.9607 29.2662 27.9652 29.3721 27.9726 29.4646L27.973 29.4697C27.9756 29.503 27.9809 29.5699 27.9944 29.6496C27.9896 29.6781 27.9813 29.7177 27.9678 29.7666C27.925 29.9215 27.843 30.12 27.708 30.3092C27.4697 30.643 27.0197 31.0239 26.0631 30.9988C23.9966 30.8347 18.84 29.4442 15.1851 25.2109L15.1679 25.191L15.1497 25.172C13.8938 23.8634 11.2659 20.0604 11.0003 15.6179C11.0057 15.3867 11.0874 15 11.3162 14.6695C11.5218 14.3723 11.8693 14.0811 12.5252 14.0015H15.1946Z" stroke="white" stroke-width="2"/>
<path d="M25.3862 19.1501C24.8555 16.7489 23.2066 15.9342 22.4485 15.827C21.6146 15.6555 21.5325 14.8265 21.5957 14.4335C21.8989 13.4902 22.796 13.6116 23.2066 13.7903C25.9358 14.6479 27.0603 17.3635 27.2815 18.6142C27.5089 19.4717 26.934 19.972 26.6181 20.1149C25.7842 20.2864 25.4494 19.5432 25.3862 19.1501Z" fill="white"/>
<path d="M29.5388 18.8385C28.6651 13.8196 24.4756 12.233 22.49 12.067C21.6163 11.9874 21.5303 11.2372 21.5965 10.8721C21.6759 10.1551 22.4238 10.0422 22.7878 10.0754C29.1417 10.9517 31.3258 16.2826 31.6237 18.8385C31.7825 19.7148 31.1604 20.0666 30.8294 20.133C30.0352 20.2127 29.7043 19.6351 29.6381 19.3364L29.5388 18.8385Z" fill="white"/>
</svg>
