<svg width="12" height="14" viewBox="0 0 12 14" fill="none" xmlns="http://www.w3.org/2000/svg">
<path d="M6.62069 7.08235L2.43882 3.19841C1.99802 2.78902 1.31515 2.79203 0.87798 3.2053C0.401372 3.65586 0.401628 4.41446 0.87854 4.86469L3.22759 7.08235L0.924049 9.1395C0.431244 9.57959 0.430698 10.3504 0.922879 10.7912C1.3407 11.1654 1.97225 11.1684 2.39352 10.798L6.62069 7.08235Z" fill="#5B9E47"/>
<path d="M8.6069 7.08235L3.28071 2.35525C2.83759 1.96198 2.79089 1.28633 3.1757 0.83583C3.56874 0.375697 4.26183 0.324998 4.71764 0.723038L12 7.08235L4.67405 13.331C4.23756 13.7033 3.58392 13.66 3.20034 13.2334C2.80567 12.7944 2.84639 12.1175 3.29082 11.729L8.6069 7.08235Z" fill="#5B9E47"/>
</svg>
