<svg width="14" height="14" viewBox="0 0 14 14" fill="none" xmlns="http://www.w3.org/2000/svg">
<g clip-path="url(#clip0_1_547)">
<path d="M12.4283 3.40686L11.6709 4.16473L9.82708 2.31813L10.5831 1.56073C10.6185 1.52556 10.6605 1.49773 10.7067 1.47883C10.7529 1.45993 10.8024 1.45033 10.8523 1.4506C10.955 1.4506 11.0507 1.48886 11.1221 1.56073L12.4278 2.8674C12.4993 2.93905 12.5394 3.03608 12.5395 3.13727C12.5396 3.23845 12.4996 3.33555 12.4283 3.40733M6.00601 9.71386L4.28121 7.99093L9.36508 2.93366L11.0567 4.6272L6.00601 9.71386ZM3.82481 10.2305L3.91861 8.70306L5.32701 10.1115L3.82481 10.2305ZM12.9668 2.32793L11.6597 1.0236C11.2313 0.592395 10.4743 0.592395 10.0459 1.0236L8.97915 2.27753L3.29281 7.71933L2.91855 10.9809L3.10055 11.1372L6.27761 10.7046L11.7143 5.0136L12.9668 3.9902C13.4111 3.545 13.4111 2.77453 12.9668 2.32793ZM11.8188 6.1448C11.6041 6.1448 11.4483 6.31653 11.4483 6.5298V11.6193C11.4483 12.1265 11.0549 12.5596 10.5476 12.5596H2.53775C2.02955 12.5596 1.44155 12.1265 1.44155 11.6193V3.60193C1.44155 3.09513 2.02955 2.55426 2.53821 2.55426H6.85068C7.06348 2.55426 7.23521 2.39653 7.23521 2.18326C7.23521 1.9686 7.06348 1.81226 6.85068 1.81226H2.53821C1.52461 1.81226 0.700012 2.58693 0.700012 3.6024V11.6193C0.700012 12.6343 1.52461 13.3002 2.53868 13.3002H10.5467C11.5612 13.3002 12.1884 12.6343 12.1884 11.6193V6.5298C12.1884 6.31653 12.0311 6.1448 11.8179 6.1448" fill="#0D6C42"/>
</g>
<defs>
<clipPath id="clip0_1_547">
<rect width="14" height="14" fill="white"/>
</clipPath>
</defs>
</svg>
