<svg width="13" height="13" viewBox="0 0 13 13" fill="none" xmlns="http://www.w3.org/2000/svg">
<g clip-path="url(#clip0_1_45)">
<path d="M6.49801 0.371582C9.31189 0.371582 11.7081 2.18357 12.5055 4.68082H11.6152C11.5227 4.434 11.4122 4.19616 11.2842 3.96822H9.57096C9.64568 4.20132 9.70711 4.43974 9.75799 4.68082H8.89016C8.82953 4.43787 8.75726 4.19929 8.67133 3.96822H7.01797V4.68082H6.18006V3.96822H4.3939C4.29779 4.19949 4.21703 4.43766 4.14888 4.68082H3.28105C3.33935 4.43948 3.40722 4.20152 3.49053 3.96822H1.71185C1.58385 4.1962 1.4733 4.43395 1.3808 4.68082H0.492393C1.28978 2.18358 3.68415 0.371582 6.49801 0.371582ZM5.23367 1.35724C4.06085 1.62692 3.03655 2.25936 2.29539 3.13031H3.84963C4.19675 2.45876 4.65667 1.85266 5.23367 1.35724ZM8.00737 1.41897C8.5268 1.90111 8.93649 2.4849 9.24178 3.13031H10.7006C10.0115 2.32049 9.07779 1.71697 8.00737 1.41897ZM6.18006 1.68829C5.62763 2.06645 5.18187 2.56513 4.82781 3.13031H6.18006V1.68829ZM7.01797 1.6939V3.13031H8.28044C7.95609 2.56384 7.54203 2.0664 7.01797 1.6939ZM12.2549 5.49067C12.3383 5.49067 12.4079 5.50949 12.4644 5.54865C12.5208 5.58781 12.5485 5.63661 12.5485 5.69266C12.5485 5.73461 12.5364 5.79274 12.5092 5.86847L12.0641 7.14778C12.0505 7.18603 12.0349 7.22916 12.0173 7.27496C11.9998 7.32077 11.9752 7.3615 11.9463 7.39653C11.9174 7.43156 11.878 7.45846 11.8284 7.47883C11.7789 7.49919 11.7166 7.50875 11.6414 7.50875C11.5482 7.50875 11.475 7.49185 11.4188 7.45825C11.3627 7.42466 11.3226 7.38853 11.301 7.3479C11.2794 7.30728 11.2525 7.24471 11.2187 7.159L10.8203 6.0368L10.4238 7.16461C10.3908 7.24817 10.3645 7.30984 10.3434 7.34977C10.3223 7.38971 10.2836 7.427 10.2274 7.46012C10.1713 7.49325 10.0966 7.50875 10.003 7.50875C9.9046 7.50875 9.82747 7.49259 9.77296 7.45825C9.71845 7.42391 9.6803 7.38526 9.65887 7.34229C9.63744 7.29933 9.61233 7.23382 9.58218 7.14778L9.13705 5.86847C9.10946 5.78817 9.0959 5.73004 9.0959 5.69266C9.0959 5.63562 9.12479 5.58732 9.18193 5.54865C9.23908 5.50998 9.30764 5.49067 9.38954 5.49067C9.47168 5.49067 9.53505 5.50521 9.57844 5.53556C9.62184 5.5659 9.65164 5.59888 9.66822 5.63468C9.6848 5.67049 9.70191 5.7178 9.71872 5.77496L10.0329 6.86349L10.3846 5.84416C10.4174 5.75856 10.4441 5.69706 10.465 5.65713C10.4859 5.61719 10.5262 5.57845 10.5828 5.54304C10.6394 5.50762 10.7184 5.49067 10.8203 5.49067C10.9206 5.49067 10.9989 5.50705 11.0579 5.54117C11.1168 5.57529 11.1589 5.61529 11.1832 5.659C11.2075 5.70271 11.234 5.76352 11.2636 5.84416L11.6134 6.86349L11.9294 5.76748C11.9542 5.68436 11.9862 5.61823 12.0248 5.56735C12.0634 5.51648 12.1397 5.49067 12.2549 5.49067ZM7.94752 5.49067C8.0309 5.49067 8.10054 5.50949 8.15699 5.54865C8.21344 5.58781 8.24116 5.63661 8.24116 5.69266C8.24116 5.73461 8.22721 5.79274 8.20001 5.86847L7.75487 7.14778C7.74131 7.18603 7.72571 7.22916 7.70812 7.27496C7.69053 7.32077 7.66782 7.3615 7.63891 7.39653C7.61001 7.43156 7.57068 7.45846 7.52108 7.47883C7.47149 7.49919 7.40921 7.50875 7.33405 7.50875C7.24083 7.50875 7.16575 7.49185 7.10961 7.45825C7.05347 7.42466 7.01527 7.38853 6.99365 7.3479C6.97203 7.30728 6.94514 7.24471 6.91136 7.159L6.51298 6.0368L6.11647 7.16461C6.08346 7.24817 6.05716 7.30984 6.03604 7.34977C6.01493 7.38971 5.97623 7.427 5.92008 7.46012C5.86395 7.49325 5.78925 7.50875 5.69564 7.50875C5.59724 7.50875 5.52011 7.49259 5.46559 7.45825C5.41108 7.42391 5.37293 7.38526 5.3515 7.34229C5.33008 7.29933 5.30497 7.23382 5.27482 7.14778L4.82968 5.86847C4.8021 5.78817 4.78854 5.73004 4.78854 5.69266C4.78854 5.63562 4.81743 5.58732 4.87457 5.54865C4.93172 5.50998 5.00028 5.49067 5.08218 5.49067C5.16432 5.49067 5.22769 5.50521 5.27108 5.53556C5.31448 5.5659 5.34428 5.59888 5.36086 5.63468C5.37744 5.67049 5.39454 5.7178 5.41135 5.77496L5.72557 6.86349L6.07719 5.84416C6.11005 5.75856 6.13673 5.69706 6.15761 5.65713C6.1785 5.61719 6.21697 5.57845 6.27357 5.54304C6.33018 5.50762 6.40914 5.49067 6.51111 5.49067C6.61138 5.49067 6.69158 5.50705 6.75051 5.54117C6.80944 5.57529 6.85153 5.61529 6.87582 5.659C6.90011 5.70271 6.92665 5.76352 6.95624 5.84416L7.306 6.86349L7.62208 5.76748C7.6468 5.68436 7.67701 5.61823 7.7156 5.56735C7.75419 5.51648 7.83237 5.49067 7.94752 5.49067ZM3.64015 5.49067C3.72353 5.49067 3.79318 5.50949 3.84963 5.54865C3.90608 5.58781 3.9338 5.63661 3.9338 5.69266C3.9338 5.73461 3.91985 5.79274 3.89265 5.86847L3.44751 7.14778C3.43395 7.18603 3.41834 7.22916 3.40075 7.27496C3.38316 7.32077 3.36045 7.3615 3.33155 7.39653C3.30265 7.43156 3.26331 7.45846 3.21372 7.47883C3.16413 7.49919 3.10185 7.50875 3.02669 7.50875C2.93347 7.50875 2.85839 7.49185 2.80225 7.45825C2.74611 7.42466 2.70791 7.38853 2.68629 7.3479C2.66467 7.30728 2.63591 7.24471 2.60212 7.159L2.20561 6.0368L1.8091 7.16461C1.7761 7.24817 1.7498 7.30984 1.72868 7.34977C1.70757 7.38971 1.66886 7.427 1.61272 7.46012C1.55658 7.49325 1.48189 7.50875 1.38828 7.50875C1.28987 7.50875 1.21275 7.49259 1.15823 7.45825C1.10372 7.42391 1.06557 7.38526 1.04414 7.34229C1.02272 7.29933 0.997602 7.23382 0.967457 7.14778L0.522319 5.86847C0.494737 5.78817 0.481177 5.73004 0.481174 5.69266C0.481177 5.63562 0.508193 5.58732 0.565336 5.54865C0.622487 5.50998 0.692913 5.49067 0.774814 5.49067C0.856955 5.49067 0.920327 5.50521 0.963717 5.53556C1.00711 5.5659 1.03691 5.59888 1.05349 5.63468C1.07008 5.67049 1.08718 5.7178 1.10399 5.77496L1.41634 6.86349L1.76983 5.84416C1.80268 5.75856 1.82937 5.69706 1.85025 5.65713C1.87114 5.61719 1.90961 5.57845 1.96621 5.54304C2.02282 5.50762 2.10177 5.49067 2.20374 5.49067C2.30401 5.49067 2.38422 5.50705 2.44315 5.54117C2.50208 5.57529 2.54417 5.61529 2.56846 5.659C2.59275 5.70271 2.61928 5.76352 2.64888 5.84416L2.99863 6.86349L3.31285 5.76748C3.33757 5.68436 3.36965 5.61823 3.40823 5.56735C3.44682 5.51648 3.52501 5.49067 3.64015 5.49067ZM12.5373 8.20825C11.7761 10.7619 9.35323 12.6278 6.49801 12.6278C3.64276 12.6278 1.21992 10.762 0.458729 8.20825H1.34339C1.42775 8.44909 1.52857 8.68194 1.64639 8.90589H3.4419C3.36546 8.67756 3.30236 8.44416 3.24926 8.20825H4.104C4.16367 8.44679 4.23516 8.67985 4.32282 8.90589H6.18006V8.20825H7.01797V8.90589H8.71435C8.79127 8.68069 8.85745 8.44739 8.91261 8.20825H9.77296C9.72475 8.44443 9.66593 8.67757 9.59902 8.90589H11.3496C11.4675 8.68194 11.5701 8.44909 11.6545 8.20825H12.5373ZM10.7998 9.74379H9.29789C8.99137 10.4528 8.58496 11.0861 8.06161 11.5674C9.16346 11.2486 10.1131 10.6019 10.7998 9.74379ZM8.3646 9.74379H7.01797V11.3093C7.56213 10.9643 8.01727 10.4144 8.3646 9.74379ZM6.18006 9.74379H4.73991C5.10554 10.355 5.58103 10.8838 6.18006 11.27V9.74379ZM3.77669 9.74379H2.19626C2.95253 10.6889 4.02946 11.377 5.27482 11.6534C4.63578 11.1367 4.13926 10.4788 3.77669 9.74379Z" fill="#5B9E47"/>
</g>
<defs>
<clipPath id="clip0_1_45">
<rect width="13" height="13" fill="white" transform="matrix(-1 0 0 1 13 0)"/>
</clipPath>
</defs>
</svg>
