<svg width="39" height="39" viewBox="0 0 39 39" fill="none" xmlns="http://www.w3.org/2000/svg">
<rect x="0.5" y="0.5" width="38" height="38" stroke="#8DC540"/>
<path d="M9.6 11.352H30.4C31.8359 11.352 33 10.2173 33 8.81766C33 7.41801 31.8359 6.28329 30.4 6.28329H9.6C8.16411 6.28329 7 7.41801 7 8.81766C7 10.2173 8.16411 11.352 9.6 11.352Z" fill="#0D6C42"/>
<path d="M30.4 14.6105H9.6C8.16411 14.6105 7 15.7452 7 17.1449C7 18.5445 8.16411 19.6792 9.6 19.6792H30.4C31.8359 19.6792 33 18.5445 33 17.1449C33 15.7452 31.8359 14.6105 30.4 14.6105Z" fill="#0D6C42"/>
<path d="M30.4 22.9377H9.6C8.16411 22.9377 7 24.0724 7 25.472C7 26.8717 8.16411 28.0064 9.6 28.0064H30.4C31.8359 28.0064 33 26.8717 33 25.472C33 24.0724 31.8359 22.9377 30.4 22.9377Z" fill="#0D6C42"/>
</svg>
