<svg width="26" height="26" viewBox="0 0 26 26" fill="none" xmlns="http://www.w3.org/2000/svg">
<path d="M12.058 20.547L8.94663 23.9634C8.54623 24.402 7.81563 24.1194 7.81563 23.5249V17.0058C7.81553 16.9129 7.83536 16.821 7.87378 16.7364C7.9122 16.6518 7.96832 16.5764 8.03836 16.5153L23.3116 3.2033L2.18056 8.36603C2.04561 8.39883 1.92217 8.46785 1.82357 8.56565C1.72497 8.66346 1.65495 8.78632 1.62105 8.921C1.58716 9.05568 1.59069 9.19706 1.63125 9.32989C1.67181 9.46271 1.74787 9.58193 1.85122 9.6747L7.05296 14.2914C7.18191 14.4059 7.2601 14.5669 7.27034 14.739C7.28058 14.9111 7.22203 15.0803 7.10756 15.2092C6.99309 15.3382 6.83209 15.4164 6.65997 15.4266C6.48785 15.4369 6.31871 15.3783 6.18976 15.2638L0.987158 10.6445C0.707355 10.3941 0.501231 10.072 0.391014 9.71299C0.280798 9.35401 0.270672 8.97175 0.361728 8.60743C0.452784 8.24312 0.641567 7.91058 0.907719 7.64566C1.17387 7.38075 1.50729 7.19352 1.87202 7.10417L23.0707 1.9241C23.4473 1.83195 23.8422 1.8478 24.2102 1.96984C24.5782 2.09188 24.9044 2.31517 25.1513 2.61409C25.3982 2.91302 25.5558 3.27548 25.6062 3.65991C25.6565 4.04433 25.5975 4.43516 25.4358 4.78757L17.5899 21.9094C17.4553 22.2031 17.2537 22.4611 17.0012 22.6626C16.7487 22.864 16.4525 23.0034 16.1363 23.0694C15.82 23.1355 15.4928 23.1263 15.1807 23.0427C14.8687 22.9591 14.5807 22.8033 14.3399 22.588L12.058 20.547ZM11.089 19.6804L9.11563 17.9158V21.847L11.089 19.6804ZM9.75523 16.7432L15.2066 21.6191C15.2956 21.6988 15.4022 21.7564 15.5176 21.7873C15.633 21.8183 15.7541 21.8216 15.8711 21.7972C15.9881 21.7727 16.0977 21.7211 16.191 21.6465C16.2844 21.5719 16.3589 21.4765 16.4086 21.3678L24.2537 4.24677C24.2816 4.18607 24.3014 4.12196 24.3126 4.0561L9.75523 16.7441V16.7432Z" fill="#0D6C42"/>
</svg>
