<svg width="22" height="22" viewBox="0 0 22 22" fill="none" xmlns="http://www.w3.org/2000/svg">
<g clip-path="url(#clip0_126_138)">
<path d="M11 0C8.82441 0 6.69767 0.645139 4.88873 1.85383C3.07979 3.06253 1.66989 4.78049 0.83733 6.79048C0.00476609 8.80047 -0.213071 11.0122 0.211367 13.146C0.635804 15.2798 1.68345 17.2398 3.22183 18.7782C4.76021 20.3166 6.72022 21.3642 8.85401 21.7886C10.9878 22.2131 13.1995 21.9952 15.2095 21.1627C17.2195 20.3301 18.9375 18.9202 20.1462 17.1113C21.3549 15.3023 22 13.1756 22 11C22 8.08262 20.8411 5.28473 18.7782 3.22183C16.7153 1.15893 13.9174 0 11 0ZM11.682 17.5047C11.4633 17.7093 11.1749 17.8232 10.8753 17.8232C10.5758 17.8232 10.2874 17.7093 10.0687 17.5047C9.96282 17.3996 9.8801 17.2736 9.8258 17.1346C9.77149 16.9957 9.74681 16.847 9.75334 16.698C9.74571 16.5522 9.76997 16.4064 9.82442 16.2709C9.87888 16.1354 9.96224 16.0133 10.0687 15.9133C10.1737 15.8075 10.2998 15.7248 10.4387 15.6705C10.5776 15.6162 10.7263 15.5915 10.8753 15.598C11.0325 15.5869 11.1903 15.6093 11.3381 15.6637C11.486 15.718 11.6207 15.8031 11.7333 15.9133C11.8361 16.0161 11.917 16.1386 11.9712 16.2735C12.0253 16.4083 12.0517 16.5527 12.0487 16.698C12.0512 16.8512 12.0195 17.0031 11.9561 17.1426C11.8927 17.2821 11.7991 17.4058 11.682 17.5047ZM14.3807 10.01C13.9029 10.5273 13.3961 11.017 12.8627 11.4767C12.5144 11.7535 12.2167 12.0884 11.9827 12.4667C11.7391 12.882 11.6147 13.3565 11.6233 13.838V14.2707H10.1567V13.838C10.145 13.2769 10.2604 12.7203 10.494 12.21C10.9819 11.365 11.6236 10.6188 12.386 10.01C12.6111 9.79716 12.8241 9.57192 13.024 9.33533C13.3768 8.92682 13.5764 8.40828 13.5887 7.86867C13.6055 7.54976 13.5576 7.23076 13.448 6.93082C13.3383 6.63089 13.1692 6.35622 12.9507 6.12333C12.7066 5.89395 12.4178 5.71755 12.1023 5.60523C11.7868 5.49291 11.4514 5.44709 11.1173 5.47067C10.7214 5.43837 10.3236 5.50528 9.95995 5.66532C9.59632 5.82537 9.27831 6.07352 9.03467 6.38733C8.59058 7.01525 8.37334 7.77558 8.41867 8.54333H6.95201C6.89397 7.38999 7.29169 6.26005 8.05934 5.39733C8.4601 4.98552 8.94409 4.66392 9.479 4.454C10.0139 4.24408 10.5875 4.15067 11.1613 4.18C12.2164 4.12241 13.2526 4.47744 14.0507 5.17C14.4046 5.5091 14.6814 5.92036 14.8623 6.37587C15.0433 6.83139 15.1241 7.32049 15.0993 7.81C15.1135 8.6032 14.8603 9.3781 14.3807 10.01Z" fill="#8DC540"/>
</g>
<defs>
<clipPath id="clip0_126_138">
<rect width="22" height="22" fill="white"/>
</clipPath>
</defs>
</svg>
