<svg width="12" height="12" viewBox="0 0 12 12" fill="none" xmlns="http://www.w3.org/2000/svg">
<g clip-path="url(#clip0_1_545)">
<path d="M0.916687 11.3473C0.916687 11.5139 1.02778 11.625 1.19441 11.625C1.36104 11.625 1.47213 11.5139 1.47213 11.3473C1.47213 8.84731 3.49989 6.81955 5.99986 6.81955C8.49982 6.81955 10.5277 8.84731 10.5277 11.3473C10.5277 11.5139 10.6388 11.625 10.8055 11.625C10.9721 11.625 11.0832 11.5139 11.0832 11.3473C11.0832 9.04164 9.52763 7.09727 7.44432 6.45828C8.49982 5.93053 9.22221 4.84671 9.22221 3.5972C9.22221 1.81947 7.77774 0.375 5.99986 0.375C4.22197 0.375 2.77781 1.81947 2.77781 3.5972C2.77781 4.84718 3.50005 5.93053 4.55555 6.45828C2.44455 7.06942 0.916687 9.01379 0.916687 11.3473ZM3.33341 3.56888C3.33341 2.09672 4.52785 0.902124 6.00001 0.902124C7.47217 0.902124 8.66677 2.09734 8.66677 3.56888C8.66677 5.04041 7.47249 6.2361 6.00001 6.2361C4.52754 6.2361 3.33341 5.04166 3.33341 3.56888Z" fill="#0D6C42"/>
</g>
<defs>
<clipPath id="clip0_1_545">
<rect width="12" height="12" fill="white"/>
</clipPath>
</defs>
</svg>
